<svg xmlns="http://www.w3.org/2000/svg" xmlns:xlink="http://www.w3.org/1999/xlink" width="496.5" height="358" viewBox="-27.5 -29 496.5 358">
<rect x="-27.5" y="-29" width="496.5" height="358" fill="#ffffff"/>
<g transform="translate(0 0)" opacity="0.4">
<path d="M0 0 C0 0, 0 0, 0 0 M0 0 C0 0, 0 0, 0 0 M-0.26 6.4 C1.3 5.07, 3.45 3.37, 4.99 0.36 M-0.26 6.4 C1.93 4, 3.29 2.11, 4.99 0.36 M0.13 12.04 C5.97 7.42, 7.38 1.8, 10.63 -0.03 M0.13 12.04 C2.57 8.55, 6.38 5.44, 10.63 -0.03 M-0.13 18.44 C6.88 11.62, 10.64 6, 15.62 0.33 M-0.13 18.44 C5.14 13.21, 8.61 8.11, 15.62 0.33 M0.27 24.08 C6.17 15.46, 15.52 8.01, 21.26 -0.07 M0.27 24.08 C5.44 17.77, 10.22 12.09, 21.26 -0.07 M0 30.48 C9.98 20.36, 16.47 11.76, 26.25 0.29 M0 30.48 C7.15 23.42, 13.66 15.11, 26.25 0.29 M-0.26 36.88 C11.98 24.83, 21.67 11.79, 31.89 -0.1 M-0.26 36.88 C8.39 28.15, 17.45 18.21, 31.89 -0.1 M0.14 42.52 C11.28 27.91, 25.15 15.68, 36.88 0.26 M0.14 42.52 C10.3 31.13, 19.31 21.82, 36.88 0.26 M-0.12 48.92 C11.02 40.67, 18.52 29.61, 42.52 -0.14 M-0.12 48.92 C10.79 35.76, 23.02 22.38, 42.52 -0.14 M0.27 54.56 C13.9 38.09, 30.82 19.43, 47.51 0.22 M0.27 54.56 C17.4 34.65, 34.75 15.09, 47.51 0.22 M0.01 60.96 C21.07 38.33, 40.7 14.48, 53.15 -0.17 M0.01 60.96 C15.23 41.55, 31.26 22.99, 53.15 -0.17 M-0.25 67.36 C18.55 43.54, 39.56 23.39, 58.14 0.19 M-0.25 67.36 C22 43.67, 42.81 18.19, 58.14 0.19 M0.14 73 C23.5 47.1, 46.87 18.84, 63.78 -0.21 M0.14 73 C23.78 45.98, 46.61 19.51, 63.78 -0.21 M-0.12 79.4 C19.8 59.24, 38.32 36, 68.77 0.15 M-0.12 79.4 C25.21 49.82, 51.28 18.94, 68.77 0.15 M4.21 80.51 C31.68 50.71, 57.19 18.98, 74.41 -0.24 M4.21 80.51 C31.43 48.45, 58.67 16.91, 74.41 -0.24 M9.86 80.12 C26.05 65.17, 39.75 45.66, 79.4 0.12 M9.86 80.12 C27.52 58.12, 46.39 38.04, 79.4 0.12 M14.84 80.48 C30.95 61.59, 47.38 40, 85.04 -0.28 M14.84 80.48 C34.4 57.17, 53.3 34.78, 85.04 -0.28 M20.49 80.08 C49.31 49.79, 73.86 16.84, 90.03 0.08 M20.49 80.08 C34.42 62.38, 50.02 43.74, 90.03 0.08 M25.47 80.44 C49.26 53.95, 69.62 28.69, 95.67 -0.31 M25.47 80.44 C43.54 59.44, 61.4 39.07, 95.67 -0.31 M31.12 80.05 C43.65 63.61, 58.92 47.16, 100.66 0.05 M31.12 80.05 C46.48 63.05, 62.17 44.97, 100.66 0.05 M36.1 80.41 C62.46 50.08, 88.42 22.59, 106.3 -0.34 M36.1 80.41 C57.39 54.87, 79.21 31.42, 106.3 -0.34 M41.75 80.01 C56.94 63.32, 75.21 44.1, 111.29 0.02 M41.75 80.01 C64.98 51, 89.31 23.92, 111.29 0.02 M46.73 80.37 C62.12 63.03, 74.81 45.56, 116.27 0.38 M46.73 80.37 C70.6 53.06, 94.93 26.32, 116.27 0.38 M52.38 79.98 C74.36 51.85, 99.15 25.39, 120.61 1.49 M52.38 79.98 C71.02 60.63, 87.71 41.14, 120.61 1.49 M57.36 80.34 C80.32 57.28, 101.55 30.09, 120.34 7.89 M57.36 80.34 C71.55 64.81, 83.87 48.7, 120.34 7.89 M62.35 80.7 C73.36 67.19, 85.81 52.09, 120.08 14.29 M62.35 80.7 C80.43 59.31, 97.71 39.35, 120.08 14.29 M67.99 80.31 C84.75 59.73, 101.17 43.35, 120.48 19.93 M67.99 80.31 C84.86 60.56, 104.49 38.69, 120.48 19.93 M72.98 80.67 C85.16 66.31, 97.87 54.28, 120.22 26.33 M72.98 80.67 C85.19 66.4, 97.19 53.72, 120.22 26.33 M78.62 80.27 C88.77 64.86, 102.85 55.26, 120.61 31.97 M78.62 80.27 C90.09 66.47, 102.34 53.81, 120.61 31.97 M83.61 80.63 C95.63 68.81, 105.3 58.54, 120.35 38.37 M83.61 80.63 C96.42 64.93, 109.35 50.63, 120.35 38.37 M89.25 80.24 C100.63 66.25, 109.87 56.85, 120.09 44.77 M89.25 80.24 C99.1 69.37, 107.99 59.37, 120.09 44.77 M94.24 80.6 C106.11 68.25, 112.27 59.91, 120.48 50.41 M94.24 80.6 C99.37 73.04, 104.9 66.56, 120.48 50.41 M99.88 80.2 C103.18 76.18, 107.29 68.76, 120.22 56.81 M99.88 80.2 C106 73.95, 111.01 67.02, 120.22 56.81 M104.87 80.56 C110.2 74.73, 114.64 72.4, 120.62 62.45 M104.87 80.56 C109.14 77.52, 112.24 72.51, 120.62 62.45 M110.51 80.17 C114.03 78.2, 116.09 74.76, 120.35 68.85 M110.51 80.17 C113.55 76.01, 117.2 72.29, 120.35 68.85 M115.5 80.53 C117.36 78.9, 118.32 76.35, 120.09 75.24 M115.5 80.53 C117.09 79.12, 117.64 77.77, 120.09 75.24" stroke="#a5d8ff" fill="none" stroke-width="0.5" stroke-linecap="round" stroke-linejoin="round"/>
<path d="M0 0 C23.78 -0.73, 46.13 -0.8, 120 0 M0 0 C48.54 1.17, 96.02 0.99, 120 0 M120 0 C120.31 24.35, 118.37 52.06, 120 80 M120 0 C120.21 26.09, 119.93 52.45, 120 80 M120 80 C78.9 80.22, 34.48 82.11, 0 80 M120 80 C84.29 79.88, 49.73 78.62, 0 80 M0 80 C-1.95 58.35, -0.9 37.65, 0 0 M0 80 C0.69 52.65, 1.34 24.57, 0 0" stroke="#1b1b1f" fill="none" stroke-width="1" stroke-linecap="round" stroke-linejoin="round"/>
</g>
<g transform="translate(160 0)" opacity="0.46">
<path d="M0 0 C0 0, 0 0, 0 0 M0 0 C0 0, 0 0, 0 0 M0.13 12.04 C1.38 8.62, 4.19 6.22, 10.63 -0.03 M0.13 12.04 C4.07 7.97, 6.67 5.07, 10.63 -0.03 M0.27 24.08 C2.82 20.76, 10.35 13.14, 21.26 -0.07 M0.27 24.08 C7.46 14.56, 16.06 5.26, 21.26 -0.07 M-0.26 36.88 C6.86 28.57, 16.94 16.63, 31.89 -0.1 M-0.26 36.88 C9.5 23.88, 22.27 10.83, 31.89 -0.1 M-0.12 48.92 C12.26 34.91, 24.88 20.16, 42.52 -0.14 M-0.12 48.92 C9.08 38.44, 17.35 29.39, 42.52 -0.14 M0.01 60.96 C15.8 42.95, 33.09 23.89, 53.15 -0.17 M0.01 60.96 C15.79 42.74, 30.68 24.7, 53.15 -0.17 M0.14 73 C17.91 53.78, 36.52 31.01, 63.78 -0.21 M0.14 73 C25.14 45.25, 48.76 17.9, 63.78 -0.21 M4.21 80.51 C29.23 50.34, 56.13 17.54, 74.41 -0.24 M4.21 80.51 C31.83 48.66, 59.29 17.97, 74.41 -0.24 M14.84 80.48 C35.06 57.86, 52.96 35.06, 85.04 -0.28 M14.84 80.48 C38.6 53.79, 61.17 25.58, 85.04 -0.28 M25.47 80.44 C44.34 56.15, 65.46 37.15, 95.67 -0.31 M25.47 80.44 C51.54 50.56, 76.85 21.45, 95.67 -0.31 M36.1 80.41 C52.98 57.42, 74.12 37.1, 106.3 -0.34 M36.1 80.41 C59.57 52.39, 84.45 25.92, 106.3 -0.34 M46.73 80.37 C65.76 58.19, 83.5 36.19, 116.27 0.38 M46.73 80.37 C66.87 56.14, 85.72 32.23, 116.27 0.38 M57.36 80.34 C82.5 51.79, 105.97 25.22, 120.34 7.89 M57.36 80.34 C79.28 54, 102.86 28.54, 120.34 7.89 M67.99 80.31 C84.35 64.03, 98.86 47.43, 120.48 19.93 M67.99 80.31 C83.88 62.05, 99.06 42.46, 120.48 19.93 M78.62 80.27 C88.17 69.09, 94.48 59.35, 120.61 31.97 M78.62 80.27 C95.01 60.92, 112.25 41.12, 120.61 31.97 M89.25 80.24 C96.84 70.42, 109.58 59.08, 120.09 44.77 M89.25 80.24 C98.88 68.12, 109.06 55.96, 120.09 44.77 M99.88 80.2 C106.77 72.8, 110 65.75, 120.22 56.81 M99.88 80.2 C107.49 71.47, 113.32 63.09, 120.22 56.81 M110.51 80.17 C113.18 76.06, 117.32 71.31, 120.35 68.85 M110.51 80.17 C113.83 76.49, 117.41 72.4, 120.35 68.85" stroke="#a5d8ff" fill="none" stroke-width="1" stroke-linecap="round" stroke-linejoin="round"/>
<path d="M0 0 C22.64 0.79, 47.81 0.92, 120 0 M0 0 C32.38 0.66, 66.07 -0.3, 120 0 M120 0 C120.95 29.33, 121.87 54.52, 120 80 M120 0 C119.58 23.88, 120.2 48.05, 120 80 M120 80 C82.91 79.16, 45.09 78.56, 0 80 M120 80 C80.63 78.26, 40.18 79.89, 0 80 M0 80 C1.09 63.07, -1.33 44.93, 0 0 M0 80 C0.6 56.45, -0.58 32.09, 0 0" stroke="#1b1b1f" fill="none" stroke-width="2" stroke-linecap="round" stroke-linejoin="round"/>
</g>
<g transform="translate(320 0)" opacity="0.52">
<path d="M0 0 C0 0, 0 0, 0 0 M0 0 C0 0, 0 0, 0 0 M0.27 24.08 C5.68 16.69, 9.13 12.86, 21.26 -0.07 M0.27 24.08 C6.77 17.47, 12.02 10.44, 21.26 -0.07 M-0.12 48.92 C7.84 37.47, 18.88 26.64, 42.52 -0.14 M-0.12 48.92 C11.1 34.5, 23.59 19.73, 42.52 -0.14 M0.14 73 C24.13 44.1, 49.64 14.78, 63.78 -0.21 M0.14 73 C23.22 44.37, 48.24 17.39, 63.78 -0.21 M8.94 87.27 C25.33 69.88, 39.9 49.33, 85.04 -0.28 M8.94 87.27 C37.35 55.57, 66.9 22.98, 85.04 -0.28 M30.2 87.2 C54.26 60.47, 76.59 36.98, 106.3 -0.34 M30.2 87.2 C55.6 56.39, 82.04 27.27, 106.3 -0.34 M50.8 87.89 C68.73 67.76, 84.39 48.3, 124.28 3.36 M50.8 87.89 C71.77 63.32, 93.58 39.7, 124.28 3.36 M72.06 87.82 C87.17 72.07, 97.83 56.36, 123.89 28.2 M72.06 87.82 C88.35 68.37, 105.73 47.13, 123.89 28.2 M93.32 87.75 C103.42 77.45, 112.82 64.68, 124.16 52.28 M93.32 87.75 C99.61 80.25, 106.97 73.19, 124.16 52.28" stroke="#a5d8ff" fill="none" stroke-width="2" stroke-linecap="round" stroke-linejoin="round"/>
<path d="M0 0 C25.5 0.71, 49.5 1.04, 120 0 M0 0 C40.21 0.15, 82.12 -1.6, 120 0 M120 0 C119.99 30.31, 119.77 60.98, 120 80 M120 0 C120.95 21.67, 120.46 43.64, 120 80 M120 80 C86.92 80.51, 55.69 77.4, 0 80 M120 80 C74.96 78.64, 30.63 79.15, 0 80 M0 80 C-1.47 51.8, 0.64 24.21, 0 0 M0 80 C0.11 60.24, 1.1 39.6, 0 0" stroke="#1b1b1f" fill="none" stroke-width="4" stroke-linecap="round" stroke-linejoin="round"/>
</g>
<g transform="translate(0 110)" opacity="0.58">
<path d="M0 0 C0 0, 0 0, 0 0 M0 0 C0 0, 0 0, 0 0 M-0.26 6.4 C1.26 4.42, 3.82 1.41, 4.99 0.36 M-0.26 6.4 C1.26 4.98, 2.44 3.6, 4.99 0.36 M0.13 12.04 C1.9 9.69, 4.68 5.46, 10.63 -0.03 M0.13 12.04 C3.15 9.85, 4.77 6.86, 10.63 -0.03 M-0.13 18.44 C5.93 14.43, 10.99 8.99, 15.62 0.33 M-0.13 18.44 C3.09 15.07, 6.48 11.12, 15.62 0.33 M0.27 24.08 C6.09 17.69, 14.54 9.23, 21.26 -0.07 M0.27 24.08 C7.41 16.54, 15.54 7.23, 21.26 -0.07 M0 30.48 C5.67 22.45, 15.65 11.14, 26.25 0.29 M0 30.48 C9.54 19.71, 19.97 6.9, 26.25 0.29 M-0.26 36.88 C11.78 23.11, 24.77 7.27, 31.89 -0.1 M-0.26 36.88 C13.34 23.37, 26.01 7.61, 31.89 -0.1 M0.14 42.52 C12.5 26.8, 23.35 13.87, 36.88 0.26 M0.14 42.52 C10.28 30.01, 20.59 18.74, 36.88 0.26 M-0.12 48.92 C15.38 28.57, 31.6 12.16, 42.52 -0.14 M-0.12 48.92 C10.37 34.8, 23.17 22.84, 42.52 -0.14 M0.27 54.56 C18.42 33.71, 34.21 13.23, 47.51 0.22 M0.27 54.56 C17.37 34.34, 35.28 13.23, 47.51 0.22 M0.01 60.96 C19.23 36.46, 43.27 14.06, 53.15 -0.17 M0.01 60.96 C12.2 47.69, 22.61 33.8, 53.15 -0.17 M-0.25 67.36 C19.15 45.58, 40.77 21.09, 58.14 0.19 M-0.25 67.36 C19.21 44.44, 38.09 21.43, 58.14 0.19 M0.14 73 C27.03 45.04, 51.43 17.01, 63.78 -0.21 M0.14 73 C24.78 45.21, 48.59 18.93, 63.78 -0.21 M-0.12 79.4 C20.25 57.32, 40.58 34.07, 68.77 0.15 M-0.12 79.4 C25.39 48.35, 49.66 20.11, 68.77 0.15 M4.21 80.51 C19.78 57.46, 40.87 39.78, 74.41 -0.24 M4.21 80.51 C19.22 63.77, 34.18 44.73, 74.41 -0.24 M9.86 80.12 C28.11 56.45, 47.88 37.35, 79.4 0.12 M9.86 80.12 C28.98 56.93, 48.12 36.64, 79.4 0.12 M14.84 80.48 C27.96 65.47, 42.84 48.92, 85.04 -0.28 M14.84 80.48 C34.39 56.76, 54.4 34.3, 85.04 -0.28 M20.49 80.08 C39.21 58.81, 53.71 37.83, 90.03 0.08 M20.49 80.08 C45.35 51.32, 71.47 20.8, 90.03 0.08 M25.47 80.44 C49.79 52.83, 69.2 26.95, 95.67 -0.31 M25.47 80.44 C47.43 55.86, 68.41 29.07, 95.67 -0.31 M31.12 80.05 C47.56 61.56, 59.3 43.37, 100.66 0.05 M31.12 80.05 C57.87 48.92, 84.69 18.28, 100.66 0.05 M36.1 80.41 C52.52 60.9, 70.44 37.51, 106.3 -0.34 M36.1 80.41 C53.67 59.08, 72.15 37.78, 106.3 -0.34 M41.75 80.01 C61.52 56.96, 78.78 37.28, 111.29 0.02 M41.75 80.01 C68.46 50, 95.4 20.29, 111.29 0.02 M46.73 80.37 C70.04 54.76, 92.82 27.8, 116.27 0.38 M46.73 80.37 C65.63 57.8, 84.58 35.04, 116.27 0.38 M52.38 79.98 C69.71 59.98, 88.02 38.1, 120.61 1.49 M52.38 79.98 C78.45 49.73, 105.57 17.89, 120.61 1.49 M57.36 80.34 C82.62 53.29, 107.28 25.51, 120.34 7.89 M57.36 80.34 C79.19 52.94, 103 27.72, 120.34 7.89 M62.35 80.7 C77.77 63.88, 92.89 44.82, 120.08 14.29 M62.35 80.7 C75 64.61, 89 50.6, 120.08 14.29 M67.99 80.31 C86.32 56.87, 107.05 36.18, 120.48 19.93 M67.99 80.31 C85.21 61.68, 101.75 42.78, 120.48 19.93 M72.98 80.67 C87.06 65, 99.18 50.5, 120.22 26.33 M72.98 80.67 C84.9 66.7, 98.23 51.65, 120.22 26.33 M78.62 80.27 C96.14 62.82, 110.5 42.36, 120.61 31.97 M78.62 80.27 C91.61 64.48, 106.67 47.53, 120.61 31.97 M83.61 80.63 C90.34 69.61, 100.44 62.76, 120.35 38.37 M83.61 80.63 C97.11 64.01, 112.81 47.09, 120.35 38.37 M89.25 80.24 C101.66 66.03, 111.91 56.37, 120.09 44.77 M89.25 80.24 C96.41 71.98, 103.36 63.47, 120.09 44.77 M94.24 80.6 C102.03 73.41, 107.2 66.11, 120.48 50.41 M94.24 80.6 C104.04 70.46, 113.39 59.29, 120.48 50.41 M99.88 80.2 C105.32 76.66, 107.39 68.49, 120.22 56.81 M99.88 80.2 C104.89 73.9, 111.84 67.3, 120.22 56.81 M104.87 80.56 C109.49 77.59, 111.3 71.76, 120.62 62.45 M104.87 80.56 C109.66 74.59, 116.59 67.87, 120.62 62.45 M110.51 80.17 C114.94 77.27, 117.2 73.76, 120.35 68.85 M110.51 80.17 C113.8 76.29, 116.25 73.67, 120.35 68.85 M115.5 80.53 C115.8 79.93, 117.32 77.97, 120.09 75.24 M115.5 80.53 C117.06 79.29, 117.76 77.91, 120.09 75.24" stroke="#a5d8ff" fill="none" stroke-width="0.5" stroke-dasharray="4 3" stroke-linecap="round" stroke-linejoin="round"/>
<path d="M0 0 C24.35 -1.77, 47.18 -1.24, 120 0 M0 0 C26.05 2.04, 52.17 1.51, 120 0 M120 0 C119.03 19.3, 117.67 35.44, 120 80 M120 0 C118.72 19.46, 119.13 41.23, 120 80 M120 80 C90.93 77.86, 62.3 80.25, 0 80 M120 80 C95.29 79.02, 69.08 80.42, 0 80 M0 80 C1.57 56.52, 0.21 31.48, 0 0 M0 80 C0.02 64.04, -0.83 47.12, 0 0" stroke="#1b1b1f" fill="none" stroke-width="1" stroke-dasharray="4 3" stroke-linecap="round" stroke-linejoin="round"/>
</g>
<g transform="translate(160 110)" opacity="0.64">
<path d="M0 0 C0 0, 0 0, 0 0 M0 0 C0 0, 0 0, 0 0 M0.13 12.04 C4.5 7.33, 8.12 2.3, 10.63 -0.03 M0.13 12.04 C5.08 7.52, 9.4 3.22, 10.63 -0.03 M0.27 24.08 C4.56 20.31, 8.66 11.13, 21.26 -0.07 M0.27 24.08 C7.86 17.13, 13.22 8.55, 21.26 -0.07 M-0.26 36.88 C5.59 27.83, 16.58 20.5, 31.89 -0.1 M-0.26 36.88 C8.04 27.59, 15.28 17.38, 31.89 -0.1 M-0.12 48.92 C11.04 39.23, 21.48 24.92, 42.52 -0.14 M-0.12 48.92 C13.37 34.76, 25.14 19.6, 42.52 -0.14 M0.01 60.96 C14.36 43, 30.26 26.24, 53.15 -0.17 M0.01 60.96 C11 47.33, 22.92 32.72, 53.15 -0.17 M0.14 73 C23.59 46.81, 43.38 23.08, 63.78 -0.21 M0.14 73 C19.33 50.59, 37.79 27.5, 63.78 -0.21 M4.21 80.51 C18.51 64.87, 33 46.75, 74.41 -0.24 M4.21 80.51 C19.79 62.59, 35.44 45.03, 74.41 -0.24 M14.84 80.48 C34.13 60.16, 51.69 38.45, 85.04 -0.28 M14.84 80.48 C39.6 53.59, 62.74 24.79, 85.04 -0.28 M25.47 80.44 C49.95 54.83, 70.9 28.91, 95.67 -0.31 M25.47 80.44 C51.86 50.11, 77.84 19.32, 95.67 -0.31 M36.1 80.41 C55.17 59.58, 72.77 36.63, 106.3 -0.34 M36.1 80.41 C53.17 58.72, 73.11 36.43, 106.3 -0.34 M46.73 80.37 C66.42 57.46, 84.78 35.11, 116.27 0.38 M46.73 80.37 C65.22 58.57, 83.81 39.49, 116.27 0.38 M57.36 80.34 C69.41 62.98, 85.28 51.16, 120.34 7.89 M57.36 80.34 C80.26 53.25, 104.82 25.99, 120.34 7.89 M67.99 80.31 C83.15 63.64, 99.22 43.3, 120.48 19.93 M67.99 80.31 C84.07 61.68, 99.52 44.65, 120.48 19.93 M78.62 80.27 C89.18 66.44, 102.77 53.33, 120.61 31.97 M78.62 80.27 C88.41 70.51, 96.34 59.49, 120.61 31.97 M89.25 80.24 C99.22 69.37, 111.77 57.04, 120.09 44.77 M89.25 80.24 C99.1 67.65, 110.87 56.06, 120.09 44.77 M99.88 80.2 C105.99 74.27, 109.5 70.13, 120.22 56.81 M99.88 80.2 C107.18 71.32, 113.79 63.24, 120.22 56.81 M110.51 80.17 C111.5 78.9, 113.95 76.4, 120.35 68.85 M110.51 80.17 C113.35 77.32, 116.57 73.82, 120.35 68.85" stroke="#a5d8ff" fill="none" stroke-width="1" stroke-dasharray="8 6" stroke-linecap="round" stroke-linejoin="round"/>
<path d="M0 0 C23.21 -1.85, 48.86 -1.12, 120 0 M0 0 C33.88 -0.47, 68.22 0.22, 120 0 M120 0 C119.66 20.28, 121.17 41.9, 120 80 M120 0 C120.08 19.25, 119.39 36.83, 120 80 M120 80 C70.94 79.2, 24.9 79.09, 0 80 M120 80 C89.62 79.4, 59.52 79.69, 0 80 M0 80 C0.61 61.24, -0.22 42.76, 0 0 M0 80 C-0.07 51.84, -0.75 22.63, 0 0" stroke="#1b1b1f" fill="none" stroke-width="2" stroke-dasharray="8 6" stroke-linecap="round" stroke-linejoin="round"/>
</g>
<g transform="translate(320 110)" opacity="0.7">
<path d="M0 0 C0 0, 0 0, 0 0 M0 0 C0 0, 0 0, 0 0 M0.27 24.08 C5.92 14.68, 15.08 10.74, 21.26 -0.07 M0.27 24.08 C8.78 15.75, 14.86 6.2, 21.26 -0.07 M-0.12 48.92 C10.15 36.29, 22.41 23.16, 42.52 -0.14 M-0.12 48.92 C10.57 38.11, 20.47 25.61, 42.52 -0.14 M0.14 73 C22.27 48.19, 47.93 20.35, 63.78 -0.21 M0.14 73 C19.05 50.39, 35.73 29.47, 63.78 -0.21 M14.84 80.48 C37.42 50.81, 65.03 25.8, 85.04 -0.28 M14.84 80.48 C32.59 58.59, 52.14 37.43, 85.04 -0.28 M36.1 80.41 C56.2 59.24, 74.84 36.7, 106.3 -0.34 M36.1 80.41 C55.51 57.94, 73.98 35.7, 106.3 -0.34 M57.36 80.34 C74.64 60.01, 93.05 38.39, 120.34 7.89 M57.36 80.34 C71.56 64.51, 83.26 50.54, 120.34 7.89 M78.62 80.27 C88.43 66.3, 101.61 52.7, 120.61 31.97 M78.62 80.27 C94.64 63.34, 110.18 45.75, 120.61 31.97 M99.88 80.2 C106.91 75.05, 113.46 66.25, 120.22 56.81 M99.88 80.2 C103.71 76.06, 107.48 70.88, 120.22 56.81" stroke="#a5d8ff" fill="none" stroke-width="2" stroke-dasharray="16 12" stroke-linecap="round" stroke-linejoin="round"/>
<path d="M0 0 C22.07 2.07, 46.54 -1, 120 0 M0 0 C43.72 -0.98, 86.27 -1.07, 120 0 M120 0 C118.7 21.26, 119.07 44.36, 120 80 M120 0 C119.45 17.04, 119.66 32.42, 120 80 M120 80 C74.94 80.55, 35.51 77.94, 0 80 M120 80 C83.96 79.78, 49.97 80.96, 0 80 M0 80 C-1.95 49.97, -2.24 22.04, 0 0 M0 80 C-0.56 55.63, 0.92 30.15, 0 0" stroke="#1b1b1f" fill="none" stroke-width="4" stroke-dasharray="16 12" stroke-linecap="round" stroke-linejoin="round"/>
</g>
<g transform="translate(0 220)" opacity="0.76">
<path d="M0 0 C0 0, 0 0, 0 0 M0 0 C0 0, 0 0, 0 0 M-0.26 6.4 C1.65 4.99, 1.96 3.47, 4.99 0.36 M-0.26 6.4 C1.77 4.76, 3 2.68, 4.99 0.36 M0.13 12.04 C3.14 9.55, 6.18 7.49, 10.63 -0.03 M0.13 12.04 C4 7.13, 7.11 3.46, 10.63 -0.03 M-0.13 18.44 C4.62 13.25, 6.97 7.97, 15.62 0.33 M-0.13 18.44 C4.2 12.98, 10.65 6.58, 15.62 0.33 M0.27 24.08 C6.02 16.33, 9.56 10.86, 21.26 -0.07 M0.27 24.08 C4.69 18.14, 9.98 12.03, 21.26 -0.07 M0 30.48 C5.96 24.54, 11.44 14.51, 26.25 0.29 M0 30.48 C9.28 21.51, 16.39 12.25, 26.25 0.29 M-0.26 36.88 C9.15 29.43, 15.01 18.18, 31.89 -0.1 M-0.26 36.88 C9.87 26, 19.71 13.81, 31.89 -0.1 M0.14 42.52 C13.72 29.69, 25.56 12.05, 36.88 0.26 M0.14 42.52 C11.1 28.9, 22.72 15.67, 36.88 0.26 M-0.12 48.92 C15.2 30.28, 31.62 14.34, 42.52 -0.14 M-0.12 48.92 C11.96 35.84, 23.33 23.29, 42.52 -0.14 M0.27 54.56 C9.5 43.26, 22.7 31.82, 47.51 0.22 M0.27 54.56 C19.33 34.02, 35.8 13.38, 47.51 0.22 M0.01 60.96 C10.77 50.81, 20.58 38.09, 53.15 -0.17 M0.01 60.96 C19.03 39.61, 38.43 18.15, 53.15 -0.17 M-0.25 67.36 C18.4 44.79, 40.63 19.97, 58.14 0.19 M-0.25 67.36 C17.77 46.39, 36.71 25.83, 58.14 0.19 M0.14 73 C13.83 56.35, 30.53 39.19, 63.78 -0.21 M0.14 73 C25.77 44.45, 50.57 16.35, 63.78 -0.21 M-0.12 79.4 C19.12 56.77, 41.26 29.51, 68.77 0.15 M-0.12 79.4 C25.56 50.26, 50.04 20.66, 68.77 0.15 M4.21 80.51 C27.53 52.05, 54.24 24.28, 74.41 -0.24 M4.21 80.51 C21.44 60.95, 38.16 42.25, 74.41 -0.24 M9.86 80.12 C32.58 53.12, 54.42 26.43, 79.4 0.12 M9.86 80.12 C30.04 55.75, 49.44 33.23, 79.4 0.12 M14.84 80.48 C40.62 51.81, 67.99 20.12, 85.04 -0.28 M14.84 80.48 C34.38 56.35, 55.49 33.83, 85.04 -0.28 M20.49 80.08 C43.02 55.82, 65.37 30.81, 90.03 0.08 M20.49 80.08 C42.38 54.87, 65.11 28.47, 90.03 0.08 M25.47 80.44 C48.7 55.72, 71.16 29.21, 95.67 -0.31 M25.47 80.44 C51.31 51.69, 75.42 22.47, 95.67 -0.31 M31.12 80.05 C49.07 59.51, 65.29 43.59, 100.66 0.05 M31.12 80.05 C55.35 50.79, 79.39 23.59, 100.66 0.05 M36.1 80.41 C62.24 51.58, 86.15 24.14, 106.3 -0.34 M36.1 80.41 C49.95 63.3, 65.09 46.13, 106.3 -0.34 M41.75 80.01 C62.09 54.6, 82.36 30.46, 111.29 0.02 M41.75 80.01 C56.43 63, 70.06 46.66, 111.29 0.02 M46.73 80.37 C62.46 59.88, 77.43 43.44, 116.27 0.38 M46.73 80.37 C62.25 62.54, 77.83 45.76, 116.27 0.38 M52.38 79.98 C66.62 64.11, 82.46 46.82, 120.61 1.49 M52.38 79.98 C75.8 52.53, 99.7 26.04, 120.61 1.49 M57.36 80.34 C73.77 63.8, 89.27 45.92, 120.34 7.89 M57.36 80.34 C77.68 56.3, 98.4 32.45, 120.34 7.89 M62.35 80.7 C82.18 59.41, 99.98 36.4, 120.08 14.29 M62.35 80.7 C83.12 56.63, 103.38 33.29, 120.08 14.29 M67.99 80.31 C81.4 65.03, 91.92 52.1, 120.48 19.93 M67.99 80.31 C82.35 63.84, 97.8 45.92, 120.48 19.93 M72.98 80.67 C84.97 63.68, 100.5 50.72, 120.22 26.33 M72.98 80.67 C84.61 66.04, 99.26 50.65, 120.22 26.33 M78.62 80.27 C90.14 67.28, 104.38 53.63, 120.61 31.97 M78.62 80.27 C96.09 61.65, 111.96 42.41, 120.61 31.97 M83.61 80.63 C97.23 65.96, 111.12 50.08, 120.35 38.37 M83.61 80.63 C93.31 69.55, 100.43 60.45, 120.35 38.37 M89.25 80.24 C99.4 65.81, 110.66 55.88, 120.09 44.77 M89.25 80.24 C99.89 67.49, 111.07 53.39, 120.09 44.77 M94.24 80.6 C103.2 68.53, 112.63 60.23, 120.48 50.41 M94.24 80.6 C101.46 71.91, 109.38 64.1, 120.48 50.41 M99.88 80.2 C103.46 73.14, 107.5 68.21, 120.22 56.81 M99.88 80.2 C105.31 73.84, 112.22 65.57, 120.22 56.81 M104.87 80.56 C108.42 76.13, 111.6 74.8, 120.62 62.45 M104.87 80.56 C109.38 75.59, 115.01 68.8, 120.62 62.45 M110.51 80.17 C114.1 78.6, 114.59 74.29, 120.35 68.85 M110.51 80.17 C112.56 78.07, 115.3 75.05, 120.35 68.85 M115.5 80.53 C116.55 78.6, 118.16 77.57, 120.09 75.24 M115.5 80.53 C117.03 78.84, 117.89 77.45, 120.09 75.24" stroke="#a5d8ff" fill="none" stroke-width="0.5" stroke-dasharray="1 2.5" stroke-linecap="round" stroke-linejoin="round"/>
<path d="M0 0 C24.93 -0.41, 48.22 0.72, 120 0 M0 0 C27.56 -1.49, 56.32 -0.37, 120 0 M120 0 C117.74 26.25, 120.97 50.82, 120 80 M120 0 C118.82 30.83, 119.92 60.02, 120 80 M120 80 C82.95 81.89, 42.11 80.78, 0 80 M120 80 C80.29 80.16, 38.42 80.23, 0 80 M0 80 C1.09 54.69, 1.33 29.31, 0 0 M0 80 C-0.65 59.43, -1 37.66, 0 0" stroke="#1b1b1f" fill="none" stroke-width="1" stroke-dasharray="1 2.5" stroke-linecap="round" stroke-linejoin="round"/>
</g>
<g transform="translate(160 220)" opacity="0.82">
<path d="M0 0 C0 0, 0 0, 0 0 M0 0 C0 0, 0 0, 0 0 M0.13 12.04 C2.09 8.46, 4.41 6.41, 10.63 -0.03 M0.13 12.04 C3.74 9.49, 6.09 4.59, 10.63 -0.03 M0.27 24.08 C6.79 15.86, 11.46 13.13, 21.26 -0.07 M0.27 24.08 C5.77 17.28, 11.89 11.42, 21.26 -0.07 M-0.26 36.88 C8.33 27.08, 12.23 20.38, 31.89 -0.1 M-0.26 36.88 C11.01 23.27, 23.14 10.5, 31.89 -0.1 M-0.12 48.92 C17.36 29.73, 30.15 14.06, 42.52 -0.14 M-0.12 48.92 C9.13 38.88, 17.88 29.44, 42.52 -0.14 M0.01 60.96 C14.13 45.99, 24.66 31.52, 53.15 -0.17 M0.01 60.96 C20.06 38.62, 39.64 17.21, 53.15 -0.17 M0.14 73 C25.27 43.85, 50.23 15.15, 63.78 -0.21 M0.14 73 C15.51 55.94, 28.82 39.1, 63.78 -0.21 M2.9 82.02 C19.2 64.42, 35.62 44.51, 74.41 -0.24 M2.9 82.02 C21.18 61.5, 37.38 40.54, 74.41 -0.24 M13.53 81.99 C28.18 63.61, 45.7 42.64, 85.04 -0.28 M13.53 81.99 C38.12 53.81, 62.27 25.9, 85.04 -0.28 M24.16 81.95 C49.11 53.07, 74.35 23.68, 95.67 -0.31 M24.16 81.95 C49.74 50.58, 76.88 19.55, 95.67 -0.31 M34.13 82.67 C51.92 59.4, 74.51 37.22, 106.3 -0.34 M34.13 82.67 C63.23 49.69, 91.03 18.54, 106.3 -0.34 M44.76 82.64 C65.68 60.95, 85.19 37.65, 116.27 0.38 M44.76 82.64 C60.44 63.33, 77.23 44.56, 116.27 0.38 M55.39 82.6 C72.38 65.58, 90.69 44.37, 124.28 3.36 M55.39 82.6 C81.58 52.08, 109.47 20.3, 124.28 3.36 M66.02 82.57 C81.74 63.44, 101.22 41.25, 124.41 15.4 M66.02 82.57 C84.05 62.5, 101.53 42, 124.41 15.4 M76.65 82.54 C93.16 63.83, 111.96 41.11, 123.89 28.2 M76.65 82.54 C88.54 69.27, 100.85 55.87, 123.89 28.2 M87.28 82.5 C94.72 71.56, 102.19 63.87, 124.02 40.24 M87.28 82.5 C101.54 66.95, 115.04 51.45, 124.02 40.24 M97.91 82.47 C105.07 76.04, 110.16 69.33, 124.16 52.28 M97.91 82.47 C107.07 70.94, 116.61 60.7, 124.16 52.28 M108.55 82.43 C110.94 76.7, 115.29 72.54, 124.29 64.32 M108.55 82.43 C112.6 79.06, 115.02 74.48, 124.29 64.32" stroke="#a5d8ff" fill="none" stroke-width="1" stroke-dasharray="2 5" stroke-linecap="round" stroke-linejoin="round"/>
<path d="M0 0 C23.78 -0.49, 49.9 0.84, 120 0 M0 0 C37.39 0.4, 72.37 0.74, 120 0 M120 0 C118.38 27.23, 120.47 57.28, 120 80 M120 0 C120.19 28.62, 120.19 57.61, 120 80 M120 80 C86.96 79.24, 52.72 79.63, 0 80 M120 80 C74.62 80.54, 28.87 81.5, 0 80 M0 80 C0.13 59.41, 0.9 40.59, 0 0 M0 80 C0.86 63.23, 0.67 45.18, 0 0" stroke="#1b1b1f" fill="none" stroke-width="2" stroke-dasharray="2 5" stroke-linecap="round" stroke-linejoin="round"/>
</g>
<g transform="translate(320 220)" opacity="0.88">
<path d="M0 0 C0 0, 0 0, 0 0 M0 0 C0 0, 0 0, 0 0 M0.27 24.08 C5.96 21.07, 8.64 13.86, 21.26 -0.07 M0.27 24.08 C6.12 17.28, 10.81 12.04, 21.26 -0.07 M-0.12 48.92 C12.46 35.1, 21.93 23.68, 42.52 -0.14 M-0.12 48.92 C15.58 29.91, 31.43 11.86, 42.52 -0.14 M0.14 73 C20.4 48.28, 42.21 21.93, 63.78 -0.21 M0.14 73 C12.88 57.69, 25.23 42.82, 63.78 -0.21 M14.84 80.48 C34.73 55.84, 54.54 33.15, 85.04 -0.28 M14.84 80.48 C41.84 51.77, 67.62 21.37, 85.04 -0.28 M36.1 80.41 C51.65 62.8, 68.36 43.19, 106.3 -0.34 M36.1 80.41 C51.11 62.56, 65.57 46.94, 106.3 -0.34 M57.36 80.34 C80.28 55.83, 99.83 29.28, 120.34 7.89 M57.36 80.34 C78.39 55.31, 99.58 31.05, 120.34 7.89 M78.62 80.27 C89.72 64.27, 104 49.84, 120.61 31.97 M78.62 80.27 C94.68 62.05, 111.67 42.34, 120.61 31.97 M99.88 80.2 C107.82 72.29, 111 67.44, 120.22 56.81 M99.88 80.2 C103.46 74.56, 107.8 70.8, 120.22 56.81" stroke="#a5d8ff" fill="none" stroke-width="2" stroke-dasharray="4 10" stroke-linecap="round" stroke-linejoin="round"/>
<path d="M0 0 C22.64 -2.96, 47.58 -1.44, 120 0 M0 0 C45.23 -0.12, 90.42 -0.55, 120 0 M120 0 C121.42 32.21, 118.37 63.75, 120 80 M120 0 C119.56 26.41, 120.45 53.21, 120 80 M120 80 C90.97 80.59, 63.32 82.47, 0 80 M120 80 C92.96 80.92, 67.31 80.76, 0 80 M0 80 C-0.83 48.14, 0.47 15.87, 0 0 M0 80 C-1.24 51.02, -1.25 22.7, 0 0" stroke="#1b1b1f" fill="none" stroke-width="4" stroke-dasharray="4 10" stroke-linecap="round" stroke-linejoin="round"/>
</g>
</svg>
